<svg id="SvgjsSvg1290" width="1338.7749938964844" height="502.3000030517578" xmlns="http://www.w3.org/2000/svg" version="1.1" xmlns:xlink="http://www.w3.org/1999/xlink" xmlns:svgjs="http://svgjs.com/svgjs"><defs id="SvgjsDefs1291"><marker id="SvgjsMarker1306" markerWidth="14" markerHeight="10" refX="10" refY="5" viewBox="0 0 14 10" orient="auto" markerUnits="userSpaceOnUse" stroke-dasharray="0,0"><path id="SvgjsPath1307" d="M0,0 L14,5 L0,10 L0,0" fill="#323232" stroke="#323232" stroke-width="1"></path></marker><marker id="SvgjsMarker1324" markerWidth="14" markerHeight="10" refX="10" refY="5" viewBox="0 0 14 10" orient="auto" markerUnits="userSpaceOnUse" stroke-dasharray="0,0"><path id="SvgjsPath1325" d="M0,0 L14,5 L0,10 L0,0" fill="#323232" stroke="#323232" stroke-width="1"></path></marker><marker id="SvgjsMarker1376" markerWidth="14" markerHeight="10" refX="10" refY="5" viewBox="0 0 14 10" orient="auto" markerUnits="userSpaceOnUse" stroke-dasharray="0,0"><path id="SvgjsPath1377" d="M0,0 L14,5 L0,10 L0,0" fill="#323232" stroke="#323232" stroke-width="1"></path></marker><marker id="SvgjsMarker1380" markerWidth="12" markerHeight="8" refX="9" refY="4" viewBox="0 0 12 8" orient="auto" markerUnits="userSpaceOnUse" stroke-dasharray="0,0"><path id="SvgjsPath1381" d="M0,0 L12,4 L0,8 L0,0" fill="#323232" stroke="#323232" stroke-width="1"></path></marker><marker id="SvgjsMarker1384" markerWidth="12" markerHeight="8" refX="9" refY="4" viewBox="0 0 12 8" orient="auto" markerUnits="userSpaceOnUse" stroke-dasharray="0,0"><path id="SvgjsPath1385" d="M0,0 L12,4 L0,8 L0,0" fill="#323232" stroke="#323232" stroke-width="1"></path></marker><marker id="SvgjsMarker1388" markerWidth="12" markerHeight="8" refX="9" refY="4" viewBox="0 0 12 8" orient="auto" markerUnits="userSpaceOnUse" stroke-dasharray="0,0"><path id="SvgjsPath1389" d="M0,0 L12,4 L0,8 L0,0" fill="#323232" stroke="#323232" stroke-width="1"></path></marker><marker id="SvgjsMarker1396" markerWidth="12" markerHeight="8" refX="9" refY="4" viewBox="0 0 12 8" orient="auto" markerUnits="userSpaceOnUse" stroke-dasharray="0,0"><path id="SvgjsPath1397" d="M0,0 L12,4 L0,8 L0,0" fill="#323232" stroke="#323232" stroke-width="1"></path></marker><marker id="SvgjsMarker1400" markerWidth="12" markerHeight="8" refX="9" refY="4" viewBox="0 0 12 8" orient="auto" markerUnits="userSpaceOnUse" stroke-dasharray="0,0"><path id="SvgjsPath1401" d="M0,0 L12,4 L0,8 L0,0" fill="#323232" stroke="#323232" stroke-width="1"></path></marker><marker id="SvgjsMarker1404" markerWidth="12" markerHeight="8" refX="9" refY="4" viewBox="0 0 12 8" orient="auto" markerUnits="userSpaceOnUse" stroke-dasharray="0,0"><path id="SvgjsPath1405" d="M0,0 L12,4 L0,8 L0,0" fill="#323232" stroke="#323232" stroke-width="1"></path></marker><marker id="SvgjsMarker1408" markerWidth="12" markerHeight="8" refX="9" refY="4" viewBox="0 0 12 8" orient="auto" markerUnits="userSpaceOnUse" stroke-dasharray="0,0"><path id="SvgjsPath1409" d="M0,0 L12,4 L0,8 L0,0" fill="#323232" stroke="#323232" stroke-width="1"></path></marker><marker id="SvgjsMarker1412" markerWidth="14" markerHeight="10" refX="10" refY="5" viewBox="0 0 14 10" orient="auto" markerUnits="userSpaceOnUse" stroke-dasharray="0,0"><path id="SvgjsPath1413" d="M0,0 L14,5 L0,10 L0,0" fill="#323232" stroke="#323232" stroke-width="1"></path></marker><marker id="SvgjsMarker1422" markerWidth="14" markerHeight="10" refX="10" refY="5" viewBox="0 0 14 10" orient="auto" markerUnits="userSpaceOnUse" stroke-dasharray="0,0"><path id="SvgjsPath1423" d="M0,0 L14,5 L0,10 L0,0" fill="#323232" stroke="#323232" stroke-width="1"></path></marker><marker id="SvgjsMarker1430" markerWidth="14" markerHeight="10" refX="10" refY="5" viewBox="0 0 14 10" orient="auto" markerUnits="userSpaceOnUse" stroke-dasharray="0,0"><path id="SvgjsPath1431" d="M0,0 L14,5 L0,10 L0,0" fill="#323232" stroke="#323232" stroke-width="1"></path></marker><marker id="SvgjsMarker1442" markerWidth="14" markerHeight="10" refX="10" refY="5" viewBox="0 0 14 10" orient="auto" markerUnits="userSpaceOnUse" stroke-dasharray="0,0"><path id="SvgjsPath1443" d="M0,0 L14,5 L0,10 L0,0" fill="#323232" stroke="#323232" stroke-width="1"></path></marker><marker id="SvgjsMarker1446" markerWidth="14" markerHeight="10" refX="10" refY="5" viewBox="0 0 14 10" orient="auto" markerUnits="userSpaceOnUse" stroke-dasharray="0,0"><path id="SvgjsPath1447" d="M0,0 L14,5 L0,10 L0,0" fill="#323232" stroke="#323232" stroke-width="1"></path></marker><marker id="SvgjsMarker1474" markerWidth="14" markerHeight="10" refX="10" refY="5" viewBox="0 0 14 10" orient="auto" markerUnits="userSpaceOnUse" stroke-dasharray="0,0"><path id="SvgjsPath1475" d="M0,0 L14,5 L0,10 L0,0" fill="#323232" stroke="#323232" stroke-width="1"></path></marker><marker id="SvgjsMarker1478" markerWidth="14" markerHeight="10" refX="10" refY="5" viewBox="0 0 14 10" orient="auto" markerUnits="userSpaceOnUse" stroke-dasharray="0,0"><path id="SvgjsPath1479" d="M0,0 L14,5 L0,10 L0,0" fill="#323232" stroke="#323232" stroke-width="1"></path></marker><marker id="SvgjsMarker1498" markerWidth="14" markerHeight="10" refX="10" refY="5" viewBox="0 0 14 10" orient="auto" markerUnits="userSpaceOnUse" stroke-dasharray="0,0"><path id="SvgjsPath1499" d="M0,0 L14,5 L0,10 L0,0" fill="#323232" stroke="#323232" stroke-width="1"></path></marker><marker id="SvgjsMarker1502" markerWidth="14" markerHeight="10" refX="10" refY="5" viewBox="0 0 14 10" orient="auto" markerUnits="userSpaceOnUse" stroke-dasharray="0,0"><path id="SvgjsPath1503" d="M0,0 L14,5 L0,10 L0,0" fill="#323232" stroke="#323232" stroke-width="1"></path></marker><marker id="SvgjsMarker1530" markerWidth="14" markerHeight="10" refX="10" refY="5" viewBox="0 0 14 10" orient="auto" markerUnits="userSpaceOnUse" stroke-dasharray="0,0"><path id="SvgjsPath1531" d="M0,0 L14,5 L0,10 L0,0" fill="#323232" stroke="#323232" stroke-width="1"></path></marker><marker id="SvgjsMarker1550" markerWidth="14" markerHeight="10" refX="4" refY="5" viewBox="0 0 14 10" orient="auto" markerUnits="userSpaceOnUse" stroke-dasharray="0,0"><path id="SvgjsPath1551" d="M14,0 L0,5 L14,10 L14,0" fill="#323232" stroke="#323232" stroke-width="1"></path></marker><marker id="SvgjsMarker1554" markerWidth="14" markerHeight="10" refX="4" refY="5" viewBox="0 0 14 10" orient="auto" markerUnits="userSpaceOnUse" stroke-dasharray="0,0"><path id="SvgjsPath1555" d="M14,0 L0,5 L14,10 L14,0" fill="#323232" stroke="#323232" stroke-width="1"></path></marker><marker id="SvgjsMarker1558" markerWidth="14" markerHeight="10" refX="4" refY="5" viewBox="0 0 14 10" orient="auto" markerUnits="userSpaceOnUse" stroke-dasharray="0,0"><path id="SvgjsPath1559" d="M14,0 L0,5 L14,10 L14,0" fill="#323232" stroke="#323232" stroke-width="1"></path></marker><marker id="SvgjsMarker1562" markerWidth="14" markerHeight="10" refX="4" refY="5" viewBox="0 0 14 10" orient="auto" markerUnits="userSpaceOnUse" stroke-dasharray="0,0"><path id="SvgjsPath1563" d="M14,0 L0,5 L14,10 L14,0" fill="#323232" stroke="#323232" stroke-width="1"></path></marker><marker id="SvgjsMarker1566" markerWidth="14" markerHeight="10" refX="4" refY="5" viewBox="0 0 14 10" orient="auto" markerUnits="userSpaceOnUse" stroke-dasharray="0,0"><path id="SvgjsPath1567" d="M14,0 L0,5 L14,10 L14,0" fill="#323232" stroke="#323232" stroke-width="1"></path></marker><marker id="SvgjsMarker1572" markerWidth="14" markerHeight="10" refX="4" refY="5" viewBox="0 0 14 10" orient="auto" markerUnits="userSpaceOnUse" stroke-dasharray="0,0"><path id="SvgjsPath1573" d="M14,0 L0,5 L14,10 L14,0" fill="#323232" stroke="#323232" stroke-width="1"></path></marker><marker id="SvgjsMarker1576" markerWidth="14" markerHeight="10" refX="4" refY="5" viewBox="0 0 14 10" orient="auto" markerUnits="userSpaceOnUse" stroke-dasharray="0,0"><path id="SvgjsPath1577" d="M14,0 L0,5 L14,10 L14,0" fill="#323232" stroke="#323232" stroke-width="1"></path></marker></defs><g id="SvgjsG1292" transform="translate(242.29998779296875,105.84999084472656)"><path id="SvgjsPath1293" d="M 16.333333333333332 0L 112.66666666666667 0C 134.44444444444446 0 134.44444444444446 49 112.66666666666667 49L 16.333333333333332 49C -5.444444444444444 49 -5.444444444444444 0 16.333333333333332 0Z" stroke="rgba(50,50,50,1)" stroke-width="2" fill-opacity="1" fill="#ffffff"></path><g id="SvgjsG1294"><text id="SvgjsText1295" font-family="微软雅黑" text-anchor="middle" font-size="13px" width="109px" fill="#323232" font-weight="400" align="middle" lineHeight="125%" anchor="middle" family="微软雅黑" size="13px" weight="400" font-style="" opacity="1" y="13.875" transform="rotate(0)"><tspan id="SvgjsTspan1296" dy="16" x="64.5"><tspan id="SvgjsTspan1297" style="text-decoration:;">PBRT Parser</tspan></tspan></text></g></g><g id="SvgjsG1298" transform="translate(230.79998779296875,184.34999084472656)"><path id="SvgjsPath1299" d="M 0 4Q 0 0 4 0L 148 0Q 152 0 152 4L 152 45Q 152 49 148 49L 4 49Q 0 49 0 45Z" stroke="rgba(50,50,50,1)" stroke-width="2" fill-opacity="1" fill="#ffffff"></path><g id="SvgjsG1300"><text id="SvgjsText1301" font-family="微软雅黑" text-anchor="middle" font-size="13px" width="132px" fill="#323232" font-weight="400" align="middle" lineHeight="125%" anchor="middle" family="微软雅黑" size="13px" weight="400" font-style="" opacity="1" y="13.875" transform="rotate(0)"><tspan id="SvgjsTspan1302" dy="16" x="76"><tspan id="SvgjsTspan1303" style="text-decoration:;">PBRT API Calls</tspan></tspan></text></g></g><g id="SvgjsG1304"><path id="SvgjsPath1305" d="M305.29998779296875 155.84999084472656L305.29998779296875 167.64998626708984L305.29998779296875 167.64998626708984L305.29998779296875 180.44998168945312" stroke="#323232" stroke-width="2" fill="none" marker-end="url(#SvgjsMarker1306)"></path></g><g id="SvgjsG1308" transform="translate(42.39996337890625,184.34999084472656)"><path id="SvgjsPath1309" d="M 0 4Q 0 0 4 0L 148 0Q 152 0 152 4L 152 45Q 152 49 148 49L 4 49Q 0 49 0 45Z" stroke="rgba(50,50,50,1)" stroke-width="2" fill-opacity="1" fill="#ffffff"></path><g id="SvgjsG1310"><text id="SvgjsText1311" font-family="微软雅黑" text-anchor="middle" font-size="13px" width="132px" fill="#323232" font-weight="400" align="middle" lineHeight="125%" anchor="middle" family="微软雅黑" size="13px" weight="400" font-style="" opacity="1" y="5.875" transform="rotate(0)"><tspan id="SvgjsTspan1312" dy="16" x="76"><tspan id="SvgjsTspan1313" style="text-decoration:;">Make*(): Create most </tspan></tspan><tspan id="SvgjsTspan1314" dy="16" x="76"><tspan id="SvgjsTspan1315" style="text-decoration:;">of API Objects.</tspan></tspan></text></g></g><g id="SvgjsG1316" transform="translate(230.79998779296875,281.39158511161804)"><path id="SvgjsPath1317" d="M 0 4Q 0 0 4 0L 148 0Q 152 0 152 4L 152 45Q 152 49 148 49L 4 49Q 0 49 0 45Z" stroke="rgba(50,50,50,1)" stroke-width="2" fill-opacity="1" fill="#ffffff"></path><g id="SvgjsG1318"><text id="SvgjsText1319" font-family="微软雅黑" text-anchor="middle" font-size="13px" width="132px" fill="#323232" font-weight="400" align="middle" lineHeight="125%" anchor="middle" family="微软雅黑" size="13px" weight="400" font-style="" opacity="1" y="13.875" transform="rotate(0)"><tspan id="SvgjsTspan1320" dy="16" x="76"><tspan id="SvgjsTspan1321" style="text-decoration:;">pbrtWorldEnd()</tspan></tspan></text></g></g><g id="SvgjsG1322"><path id="SvgjsPath1323" d="M306.79998779296875 234.34999084472656L306.79998779296875 257.3707879781723L306.79998779296875 257.3707879781723L306.79998779296875 277.791585111618" stroke-dasharray="3,3" stroke="#323232" stroke-width="2" fill="none" marker-end="url(#SvgjsMarker1324)"></path></g><g id="SvgjsG1326" transform="translate(230.04998779296875,358.59999084472656)"><path id="SvgjsPath1327" d="M 0 4Q 0 0 4 0L 146.5 0Q 150.5 0 150.5 4L 150.5 44Q 150.5 48 146.5 48L 4 48Q 0 48 0 44Z" stroke="rgba(50,50,50,1)" stroke-width="2" fill-opacity="1" fill="#ffffff"></path><g id="SvgjsG1328"><text id="SvgjsText1329" font-family="微软雅黑" text-anchor="middle" font-size="13px" width="131px" fill="#323232" font-weight="400" align="middle" lineHeight="125%" anchor="middle" family="微软雅黑" size="13px" weight="400" font-style="" opacity="1" y="13.375" transform="rotate(0)"><tspan id="SvgjsTspan1330" dy="16" x="75.5"><tspan id="SvgjsTspan1331" style="text-decoration:;">Integrator::Render()</tspan></tspan></text></g></g><g id="SvgjsG1332" transform="translate(551.7999877929688,52.962493896484375)"><path id="SvgjsPath1333" d="M 0 4Q 0 0 4 0L 280 0Q 284 0 284 4L 284 22Q 284 26 280 26L 4 26Q 0 26 0 22Z" stroke="rgba(50,50,50,1)" stroke-width="2" fill-opacity="1" fill="#ffffff"></path><g id="SvgjsG1334"><text id="SvgjsText1335" font-family="微软雅黑" text-anchor="middle" font-size="13px" width="264px" fill="#323232" font-weight="400" align="middle" lineHeight="125%" anchor="middle" family="微软雅黑" size="13px" weight="400" font-style="" opacity="1" y="2.375" transform="rotate(0)"><tspan id="SvgjsTspan1336" dy="16" x="142"><tspan id="SvgjsTspan1337" style="text-decoration:;">Allocate MemoryArena for this tile</tspan></tspan></text></g></g><g id="SvgjsG1338" transform="translate(536.4124946594238,99.43748474121094)"><path id="SvgjsPath1339" d="M 0 4Q 0 0 4 0L 310.77498626708984 0Q 314.77498626708984 0 314.77498626708984 4L 314.77498626708984 22Q 314.77498626708984 26 310.77498626708984 26L 4 26Q 0 26 0 22Z" stroke="rgba(50,50,50,1)" stroke-width="2" fill-opacity="1" fill="#ffffff"></path><g id="SvgjsG1340"><text id="SvgjsText1341" font-family="微软雅黑" text-anchor="middle" font-size="13px" width="295px" fill="#323232" font-weight="400" align="middle" lineHeight="125%" anchor="middle" family="微软雅黑" size="13px" weight="400" font-style="" opacity="1" y="2.375" transform="rotate(0)"><tspan id="SvgjsTspan1342" dy="16" x="157.5"><tspan id="SvgjsTspan1343" style="text-decoration:;">Clone Sampler &amp; Allocate FilmTile for the tile</tspan></tspan></text></g></g><g id="SvgjsG1344" transform="translate(569.2999877929688,235.39158511161804)"><path id="SvgjsPath1345" d="M 0 4Q 0 0 4 0L 245 0Q 249 0 249 4L 249 22Q 249 26 245 26L 4 26Q 0 26 0 22Z" stroke="rgba(50,50,50,1)" stroke-width="2" fill-opacity="1" fill="#ffffff"></path><g id="SvgjsG1346"><text id="SvgjsText1347" font-family="微软雅黑" text-anchor="middle" font-size="13px" width="229px" fill="#323232" font-weight="400" align="middle" lineHeight="125%" anchor="middle" family="微软雅黑" size="13px" weight="400" font-style="" opacity="1" y="2.375" transform="rotate(0)"><tspan id="SvgjsTspan1348" dy="16" x="124.5"><tspan id="SvgjsTspan1349" style="text-decoration:;">Prepare Sampler and Generate Rays</tspan></tspan></text></g></g><g id="SvgjsG1350" transform="translate(575.3749923706055,145.9124755859375)"><path id="SvgjsPath1351" d="M 0 24.5L 118.42499542236328 0L 236.84999084472656 24.5L 118.42499542236328 49L 0 24.5Z" stroke="rgba(50,50,50,1)" stroke-width="2" fill-opacity="1" fill="#ffffff"></path><g id="SvgjsG1352"><text id="SvgjsText1353" font-family="微软雅黑" text-anchor="middle" font-size="13px" width="217px" fill="#323232" font-weight="400" align="middle" lineHeight="125%" anchor="middle" family="微软雅黑" size="13px" weight="400" font-style="" opacity="1" y="13.875" transform="rotate(0)"><tspan id="SvgjsTspan1354" dy="16" x="118.5"><tspan id="SvgjsTspan1355" style="text-decoration:;">Foreach Pixel in the FilmTile</tspan></tspan></text></g></g><g id="SvgjsG1356" transform="translate(615.2999877929688,281.8706946372986)"><path id="SvgjsPath1357" d="M 0 4Q 0 0 4 0L 153 0Q 157 0 157 4L 157 22Q 157 26 153 26L 4 26Q 0 26 0 22Z" stroke="rgba(50,50,50,1)" stroke-width="2" fill-opacity="1" fill="#ffffff"></path><g id="SvgjsG1358"><text id="SvgjsText1359" font-family="微软雅黑" text-anchor="middle" font-size="13px" width="137px" fill="#323232" font-weight="400" align="middle" lineHeight="125%" anchor="middle" family="微软雅黑" size="13px" weight="400" font-style="" opacity="1" y="2.375" transform="rotate(0)"><tspan id="SvgjsTspan1360" dy="16" x="78.5"><tspan id="SvgjsTspan1361" style="text-decoration:;">Invoke Integrator::Li()</tspan></tspan></text></g></g><g id="SvgjsG1362" transform="translate(629.2999877929688,328.1757802963257)"><path id="SvgjsPath1363" d="M 0 4Q 0 0 4 0L 125 0Q 129 0 129 4L 129 22Q 129 26 125 26L 4 26Q 0 26 0 22Z" stroke="rgba(50,50,50,1)" stroke-width="2" fill-opacity="1" fill="#ffffff"></path><g id="SvgjsG1364"><text id="SvgjsText1365" font-family="微软雅黑" text-anchor="middle" font-size="13px" width="109px" fill="#323232" font-weight="400" align="middle" lineHeight="125%" anchor="middle" family="微软雅黑" size="13px" weight="400" font-style="" opacity="1" y="2.375" transform="rotate(0)"><tspan id="SvgjsTspan1366" dy="16" x="64.5"><tspan id="SvgjsTspan1367" style="text-decoration:;">Write into Film</tspan></tspan></text></g></g><g id="SvgjsG1368" transform="translate(617.7999877929688,374.2875061035156)"><path id="SvgjsPath1369" d="M 0 4Q 0 0 4 0L 148 0Q 152 0 152 4L 152 22Q 152 26 148 26L 4 26Q 0 26 0 22Z" stroke="rgba(50,50,50,1)" stroke-width="2" fill-opacity="1" fill="#ffffff"></path><g id="SvgjsG1370"><text id="SvgjsText1371" font-family="微软雅黑" text-anchor="middle" font-size="13px" width="132px" fill="#323232" font-weight="400" align="middle" lineHeight="125%" anchor="middle" family="微软雅黑" size="13px" weight="400" font-style="" opacity="1" y="2.375" transform="rotate(0)"><tspan id="SvgjsTspan1372" dy="16" x="76"><tspan id="SvgjsTspan1373" style="text-decoration:;">Reset MemoryArena</tspan></tspan></text></g></g><g id="SvgjsG1374"><path id="SvgjsPath1375" d="M306.79998779296875 331.39158511161804L306.79998779296875 344.4957879781723L306.79998779296875 344.4957879781723L306.79998779296875 354.99999084472654" stroke="#323232" stroke-width="2" fill="none" marker-end="url(#SvgjsMarker1376)"></path></g><g id="SvgjsG1378"><path id="SvgjsPath1379" d="M693.7999877929688 79.96249389648438L693.7999877929688 89.19998931884766L693.7999877929688 89.19998931884766L693.7999877929688 97.13748474121093" stroke="#323232" stroke-width="1" fill="none" marker-end="url(#SvgjsMarker1380)"></path></g><g id="SvgjsG1382"><path id="SvgjsPath1383" d="M693.7999877929688 126.43748474121094L693.7999877929688 134.58748626708984L693.7999877929688 134.58748626708984L693.7999877929688 143.6124755859375" stroke="#323232" stroke-width="1" fill="none" marker-end="url(#SvgjsMarker1384)"></path></g><g id="SvgjsG1386"><path id="SvgjsPath1387" d="M693.7999877929688 195.9124755859375L693.7999877929688 215.15203034877777L693.7999877929688 215.15203034877777L693.7999877929688 233.09158511161803" stroke="#323232" stroke-width="1" fill="none" marker-end="url(#SvgjsMarker1388)"></path><rect id="SvgjsRect1390" width="31" height="16" x="678.2999877929688" y="206.50203034877777" fill="#ffffff"></rect><text id="SvgjsText1391" font-family="微软雅黑" text-anchor="middle" font-size="13px" width="31px" fill="#323232" font-weight="400" align="top" lineHeight="16px" anchor="middle" family="微软雅黑" size="13px" weight="400" font-style="" opacity="1" y="203.87703034877777" transform="rotate(0)"><tspan id="SvgjsTspan1392" dy="16" x="693.7999877929688"><tspan id="SvgjsTspan1393" style="text-decoration:;">WIP?</tspan></tspan></text></g><g id="SvgjsG1394"><path id="SvgjsPath1395" d="M693.7999877929688 262.39158511161804L693.7999877929688 271.6311398744583L693.7999877929688 271.6311398744583L693.7999877929688 279.5706946372986" stroke="#323232" stroke-width="1" fill="none" marker-end="url(#SvgjsMarker1396)"></path></g><g id="SvgjsG1398"><path id="SvgjsPath1399" d="M693.7999877929688 308.8706946372986L693.7999877929688 318.02323746681213L693.7999877929688 318.02323746681213L693.7999877929688 325.8757802963257" stroke="#323232" stroke-width="1" fill="none" marker-end="url(#SvgjsMarker1400)"></path></g><g id="SvgjsG1402"><path id="SvgjsPath1403" d="M693.7999877929688 355.1757802963257L693.7999877929688 364.23164319992065L693.7999877929688 364.23164319992065L693.7999877929688 371.9875061035156" stroke="#323232" stroke-width="1" fill="none" marker-end="url(#SvgjsMarker1404)"></path></g><g id="SvgjsG1406"><path id="SvgjsPath1407" d="M693.7999877929688 401.2875061035156L693.7999877929688 430.2875061035156L842.224983215332 430.2875061035156L842.224983215332 170.4124755859375L814.524983215332 170.4124755859375" stroke="#323232" stroke-width="1" fill="none" marker-end="url(#SvgjsMarker1408)"></path></g><g id="SvgjsG1410"><path id="SvgjsPath1411" d="M229.79998779296875 208.84999084472656L212.5999755859375 208.84999084472656L212.5999755859375 208.84999084472656L197.99996337890627 208.84999084472656" stroke="#323232" stroke-width="2" fill="none" marker-end="url(#SvgjsMarker1412)"></path></g><g id="SvgjsG1414" transform="translate(621.7999877929688,451.30390453338623)"><path id="SvgjsPath1415" d="M 0 4Q 0 0 4 0L 140 0Q 144 0 144 4L 144 22Q 144 26 140 26L 4 26Q 0 26 0 22Z" stroke="rgba(50,50,50,1)" stroke-width="2" fill-opacity="1" fill="#ffffff"></path><g id="SvgjsG1416"><text id="SvgjsText1417" font-family="微软雅黑" text-anchor="middle" font-size="13px" width="124px" fill="#323232" font-weight="400" align="middle" lineHeight="125%" anchor="middle" family="微软雅黑" size="13px" weight="400" font-style="" opacity="1" y="2.375" transform="rotate(0)"><tspan id="SvgjsTspan1418" dy="16" x="72"><tspan id="SvgjsTspan1419" style="text-decoration:;">Merge FilmTile</tspan></tspan></text></g></g><g id="SvgjsG1420"><path id="SvgjsPath1421" d="M574.3749923706055 170.4124755859375L545.3749923706055 170.4124755859375L545.3749923706055 464.30390453338623L618.1999877929688 464.30390453338623" stroke="#323232" stroke-width="2" fill="none" marker-end="url(#SvgjsMarker1422)"></path><rect id="SvgjsRect1424" width="40" height="16" x="525.3749923706055" y="331.27068777084355" fill="#ffffff"></rect><text id="SvgjsText1425" font-family="微软雅黑" text-anchor="middle" font-size="13px" width="40px" fill="#323232" font-weight="400" align="top" lineHeight="16px" anchor="middle" family="微软雅黑" size="13px" weight="400" font-style="" opacity="1" y="328.64568777084355" transform="rotate(0)"><tspan id="SvgjsTspan1426" dy="16" x="545.3749923706055"><tspan id="SvgjsTspan1427" style="text-decoration:;">Done?</tspan></tspan></text></g><g id="SvgjsG1428"><path id="SvgjsPath1429" d="M383.79998779296875 383.09999084472656L467.29998779296875 383.09999084472656L467.29998779296875 65.96249389648438L548.1999877929687 65.96249389648438" stroke-dasharray="3,3" stroke="#323232" stroke-width="2" fill="none" marker-end="url(#SvgjsMarker1430)"></path></g><g id="SvgjsG1432" transform="translate(42.39996337890625,281.39158511161804)"><path id="SvgjsPath1433" d="M 0 4Q 0 0 4 0L 148 0Q 152 0 152 4L 152 40.78419518470764Q 152 44.78419518470764 148 44.78419518470764L 4 44.78419518470764Q 0 44.78419518470764 0 40.78419518470764Z" stroke="rgba(50,50,50,1)" stroke-width="2" fill-opacity="1" fill="#ffcdd2"></path><g id="SvgjsG1434"><text id="SvgjsText1435" font-family="微软雅黑" text-anchor="middle" font-size="13px" width="132px" fill="#323232" font-weight="700" align="middle" lineHeight="125%" anchor="middle" family="微软雅黑" size="13px" weight="700" font-style="" opacity="1" y="3.767097592353821" transform="rotate(0)"><tspan id="SvgjsTspan1436" dy="16" x="76"><tspan id="SvgjsTspan1437" style="text-decoration:;">make_unique&lt;T&gt;</tspan></tspan><tspan id="SvgjsTspan1438" dy="16" x="76"><tspan id="SvgjsTspan1439" style="text-decoration:;">::new</tspan></tspan></text></g></g><g id="SvgjsG1440"><path id="SvgjsPath1441" d="M118.39996337890625 234.34999084472656L118.39996337890625 257.3707879781723L118.39996337890625 257.3707879781723L118.39996337890625 277.791585111618" stroke-dasharray="3,3" stroke="#323232" stroke-width="2" fill="none" marker-end="url(#SvgjsMarker1442)"></path></g><g id="SvgjsG1444"><path id="SvgjsPath1445" d="M129.02496337890625 281.36297738552094L129.02496337890625 257.4064833521843L129.02496337890625 257.4064833521843L129.02496337890625 236.04998931884768" stroke-dasharray="3,3" stroke="#323232" stroke-width="2" fill="none" marker-end="url(#SvgjsMarker1446)"></path></g><g id="SvgjsG1448" transform="translate(24.99999237060547,25.00030291080475)"><path id="SvgjsPath1449" d="M 0 4Q 0 0 4 0L 203.4000015258789 0Q 207.4000015258789 0 207.4000015258789 4L 207.4000015258789 69.35428857803345Q 207.4000015258789 73.35428857803345 203.4000015258789 73.35428857803345L 4 73.35428857803345Q 0 73.35428857803345 0 69.35428857803345Z" stroke="rgba(50,50,50,1)" stroke-width="2" fill-opacity="1" fill="#81c784"></path><g id="SvgjsG1450"><text id="SvgjsText1451" font-family="微软雅黑" text-anchor="middle" font-size="13px" width="188px" fill="#323232" font-weight="700" align="middle" lineHeight="125%" anchor="middle" family="微软雅黑" size="13px" weight="700" font-style="" opacity="1" y="10.052144289016724" transform="rotate(0)"><tspan id="SvgjsTspan1452" dy="16" x="104"><tspan id="SvgjsTspan1453" style="text-decoration:;">pmr::polymorphic_allocator</tspan></tspan><tspan id="SvgjsTspan1454" dy="16" x="104"><tspan id="SvgjsTspan1455" style="text-decoration:;">&lt;std::byte&gt;::new_object&lt;T&gt;</tspan></tspan><tspan id="SvgjsTspan1456" dy="16" x="104"><tspan id="SvgjsTspan1457" style="text-decoration:;">Unified Memory Allocation</tspan></tspan></text></g></g><g id="SvgjsG1458" transform="translate(918.7874870300293,43.570396304130554)"><path id="SvgjsPath1459" d="M 0 4Q 0 0 4 0L 148 0Q 152 0 152 4L 152 40.78419518470764Q 152 44.78419518470764 148 44.78419518470764L 4 44.78419518470764Q 0 44.78419518470764 0 40.78419518470764Z" stroke="rgba(50,50,50,1)" stroke-width="2" fill-opacity="1" fill="#ffcdd2"></path><g id="SvgjsG1460"><text id="SvgjsText1461" font-family="微软雅黑" text-anchor="middle" font-size="13px" width="132px" fill="#323232" font-weight="700" align="middle" lineHeight="125%" anchor="middle" family="微软雅黑" size="13px" weight="700" font-style="" opacity="1" y="3.767097592353821" transform="rotate(0)"><tspan id="SvgjsTspan1462" dy="16" x="76"><tspan id="SvgjsTspan1463" style="text-decoration:;">MemoryArena</tspan></tspan><tspan id="SvgjsTspan1464" dy="16" x="76"><tspan id="SvgjsTspan1465" style="text-decoration:;">for BSDF Allocation</tspan></tspan></text></g></g><g id="SvgjsG1466" transform="translate(1117.3749923706055,43.570396304130554)"><path id="SvgjsPath1467" d="M 0 4Q 0 0 4 0L 148 0Q 152 0 152 4L 152 40.78419518470764Q 152 44.78419518470764 148 44.78419518470764L 4 44.78419518470764Q 0 44.78419518470764 0 40.78419518470764Z" stroke="rgba(50,50,50,1)" stroke-width="2" fill-opacity="1" fill="#ffcdd2"></path><g id="SvgjsG1468"><text id="SvgjsText1469" font-family="微软雅黑" text-anchor="middle" font-size="13px" width="132px" fill="#323232" font-weight="700" align="middle" lineHeight="125%" anchor="middle" family="微软雅黑" size="13px" weight="700" font-style="" opacity="1" y="11.76709759235382" transform="rotate(0)"><tspan id="SvgjsTspan1470" dy="16" x="76"><tspan id="SvgjsTspan1471" style="text-decoration:;">::new</tspan></tspan></text></g></g><g id="SvgjsG1472"><path id="SvgjsPath1473" d="M1071.7874870300293 65.96249389648438L1094.0812397003174 65.96249389648438L1094.0812397003174 65.96249389648438L1113.7749923706056 65.96249389648438" stroke-dasharray="3,3" stroke="#323232" stroke-width="2" fill="none" marker-end="url(#SvgjsMarker1474)"></path></g><g id="SvgjsG1476"><path id="SvgjsPath1477" d="M1117.0637002533986 78.41471313843758L1094.3419012324407 78.41471313843758L1094.3419012324407 78.41471313843758L1074.2201022114825 78.41471313843758" stroke-dasharray="3,3" stroke="#323232" stroke-width="2" fill="none" marker-end="url(#SvgjsMarker1478)"></path></g><g id="SvgjsG1480" transform="translate(1111.7875022888184,110.30714353919029)"><path id="SvgjsPath1481" d="M 0 4Q 0 0 4 0L 197.62500762939453 0Q 201.62500762939453 0 201.62500762939453 4L 201.62500762939453 31.548180878162384Q 201.62500762939453 35.548180878162384 197.62500762939453 35.548180878162384L 4 35.548180878162384Q 0 35.548180878162384 0 31.548180878162384Z" stroke="rgba(50,50,50,1)" stroke-width="2" fill-opacity="1" fill="#81c784"></path><g id="SvgjsG1482"><text id="SvgjsText1483" font-family="微软雅黑" text-anchor="middle" font-size="13px" width="182px" fill="#323232" font-weight="700" align="middle" lineHeight="125%" anchor="middle" family="微软雅黑" size="13px" weight="700" font-style="" opacity="1" y="-0.850909560918808" transform="rotate(0)"><tspan id="SvgjsTspan1484" dy="16" x="101"><tspan id="SvgjsTspan1485" style="text-decoration:;">pmr::polymorphic_allocator</tspan></tspan><tspan id="SvgjsTspan1486" dy="16" x="101"><tspan id="SvgjsTspan1487" style="text-decoration:;">&lt;std::byte&gt;::allocate_bytes</tspan></tspan></text></g></g><g id="SvgjsG1488" transform="translate(920.1999816894531,110.30714353919029)"><path id="SvgjsPath1489" d="M 0 4Q 0 0 4 0L 145.17501068115234 0Q 149.17501068115234 0 149.17501068115234 4L 149.17501068115234 36.08569461107254Q 149.17501068115234 40.08569461107254 145.17501068115234 40.08569461107254L 4 40.08569461107254Q 0 40.08569461107254 0 36.08569461107254Z" stroke="rgba(50,50,50,1)" stroke-width="2" fill-opacity="1" fill="#81c784"></path><g id="SvgjsG1490"><text id="SvgjsText1491" font-family="微软雅黑" text-anchor="middle" font-size="13px" width="130px" fill="#323232" font-weight="700" align="middle" lineHeight="125%" anchor="middle" family="微软雅黑" size="13px" weight="700" font-style="" opacity="1" y="1.4178473055362701" transform="rotate(0)"><tspan id="SvgjsTspan1492" dy="16" x="75"><tspan id="SvgjsTspan1493" style="text-decoration:;">ScratchBuffer(CPU)</tspan></tspan><tspan id="SvgjsTspan1494" dy="16" x="75"><tspan id="SvgjsTspan1495" style="text-decoration:;">for BSDF Allocation</tspan></tspan></text></g></g><g id="SvgjsG1496"><path id="SvgjsPath1497" d="M836.7999877929688 65.96249389648438L877.293737411499 65.96249389648438L877.293737411499 65.96249389648438L915.1874870300294 65.96249389648438" stroke-dasharray="3,3" stroke="#323232" stroke-width="2" fill="none" marker-end="url(#SvgjsMarker1498)"></path></g><g id="SvgjsG1500"><path id="SvgjsPath1501" d="M773.2999877929688 294.8706946372986L861.8657862608907 294.8706946372986L861.8657862608907 79.42392888887065L915.8315847288129 79.42392888887065" stroke-dasharray="3,3" stroke="#323232" stroke-width="2" fill="none" marker-end="url(#SvgjsMarker1502)"></path></g><g id="SvgjsG1504" transform="translate(920.1999816894531,172.34539020061493)"><path id="SvgjsPath1505" d="M 0 4Q 0 0 4 0L 222.00003051757812 0Q 226.00003051757812 0 226.00003051757812 4L 226.00003051757812 36.10459911823273Q 226.00003051757812 40.10459911823273 222.00003051757812 40.10459911823273L 4 40.10459911823273Q 0 40.10459911823273 0 36.10459911823273Z" stroke="rgba(50,50,50,1)" stroke-width="2" fill-opacity="1" fill="#81c784"></path><g id="SvgjsG1506"><text id="SvgjsText1507" font-family="微软雅黑" text-anchor="middle" font-size="13px" width="207px" fill="#323232" font-weight="700" align="middle" lineHeight="125%" anchor="middle" family="微软雅黑" size="13px" weight="700" font-style="" opacity="1" y="1.4272995591163635" transform="rotate(0)"><tspan id="SvgjsTspan1508" dy="16" x="113.5"><tspan id="SvgjsTspan1509" style="text-decoration:;">Local Memory(GPU)</tspan></tspan><tspan id="SvgjsTspan1510" dy="16" x="113.5"><tspan id="SvgjsTspan1511" style="text-decoration:;">no Explicit Allocation*</tspan></tspan></text></g></g><g id="SvgjsG1512" transform="translate(1127.6000061035156,233.36238300800323)"><path id="SvgjsPath1513" d="M 0 0L 154 0L 170 16L 170 30.058404207229614L 0 30.058404207229614L 0 0Z" stroke="none" fill-opacity="1" fill="#ffffaa"></path><path id="SvgjsPath1514" d="M 154 0L 154 16L 170 16Z" stroke="none" fill-opacity="1" fill="#cdcdcd"></path><path id="SvgjsPath1515" d="M 0 0L 154 0L 170 16L 170 30.058404207229614L 0 30.058404207229614L 0 0Z" stroke="none" fill="none"></path><g id="SvgjsG1516"><text id="SvgjsText1517" font-family="微软雅黑" text-anchor="middle" font-size="13px" width="150px" fill="#323232" font-weight="400" align="middle" lineHeight="125%" anchor="middle" family="微软雅黑" size="13px" weight="400" font-style="" opacity="1" y="4.404202103614807" transform="rotate(0)"><tspan id="SvgjsTspan1518" dy="16" x="85"><tspan id="SvgjsTspan1519" style="text-decoration:;">We have BxDF sorting.</tspan></tspan></text></g></g><g id="SvgjsG1520" transform="translate(902.0812244415283,319.88613295555115)"><path id="SvgjsPath1521" d="M 0 4Q 0 0 4 0L 181.41252517700195 0Q 185.41252517700195 0 185.41252517700195 4L 185.41252517700195 38.57929468154907Q 185.41252517700195 42.57929468154907 181.41252517700195 42.57929468154907L 4 42.57929468154907Q 0 42.57929468154907 0 38.57929468154907Z" stroke="rgba(50,50,50,1)" stroke-width="2" fill-opacity="1" fill="#ffcdd2"></path><g id="SvgjsG1522"><text id="SvgjsText1523" font-family="微软雅黑" text-anchor="middle" font-size="13px" width="166px" fill="#323232" font-weight="700" align="middle" lineHeight="125%" anchor="middle" family="微软雅黑" size="13px" weight="700" font-style="" opacity="1" y="2.664647340774536" transform="rotate(0)"><tspan id="SvgjsTspan1524" dy="16" x="93"><tspan id="SvgjsTspan1525" style="text-decoration:;">_alloca() for Filtering </tspan></tspan><tspan id="SvgjsTspan1526" dy="16" x="93"><tspan id="SvgjsTspan1527" style="text-decoration:;">Computation</tspan></tspan></text></g></g><g id="SvgjsG1528"><path id="SvgjsPath1529" d="M759.2999877929688 341.1757802963257C 815.8124824523925 341.1757802963257 844.5687297821046 341.1757802963257 898.4812244415284 341.1757802963257" stroke-dasharray="3,3" stroke="#323232" stroke-width="2" fill="none" marker-end="url(#SvgjsMarker1530)"></path></g><g id="SvgjsG1532" transform="translate(885.7874717712402,374.2875061035156)"><path id="SvgjsPath1533" d="M 0 4Q 0 0 4 0L 222.00003051757812 0Q 226.00003051757812 0 226.00003051757812 4L 226.00003051757812 36.10459911823273Q 226.00003051757812 40.10459911823273 222.00003051757812 40.10459911823273L 4 40.10459911823273Q 0 40.10459911823273 0 36.10459911823273Z" stroke="rgba(50,50,50,1)" stroke-width="2" fill-opacity="1" fill="#81c784"></path><g id="SvgjsG1534"><text id="SvgjsText1535" font-family="微软雅黑" text-anchor="middle" font-size="13px" width="207px" fill="#323232" font-weight="700" align="middle" lineHeight="125%" anchor="middle" family="微软雅黑" size="13px" weight="700" font-style="" opacity="1" y="9.427299559116364" transform="rotate(0)"><tspan id="SvgjsTspan1536" dy="16" x="113.5"><tspan id="SvgjsTspan1537" style="text-decoration:;">Remove this usage in pbrt-v4</tspan></tspan></text></g></g><g id="SvgjsG1538" transform="translate(1127.6000061035156,344.229101896286)"><path id="SvgjsPath1539" d="M 0 0L 154 0L 170 16L 170 30.058404207229614L 0 30.058404207229614L 0 0Z" stroke="none" fill-opacity="1" fill="#ffffaa"></path><path id="SvgjsPath1540" d="M 154 0L 154 16L 170 16Z" stroke="none" fill-opacity="1" fill="#cdcdcd"></path><path id="SvgjsPath1541" d="M 0 0L 154 0L 170 16L 170 30.058404207229614L 0 30.058404207229614L 0 0Z" stroke="none" fill="none"></path><g id="SvgjsG1542"><text id="SvgjsText1543" font-family="微软雅黑" text-anchor="middle" font-size="13px" width="150px" fill="#323232" font-weight="400" align="middle" lineHeight="125%" anchor="middle" family="微软雅黑" size="13px" weight="400" font-style="" opacity="1" y="4.404202103614807" transform="rotate(0)"><tspan id="SvgjsTspan1544" dy="16" x="85"><tspan id="SvgjsTspan1545" style="text-decoration:;">Or CUDA 11.3 alloca().</tspan></tspan></text></g></g><g id="SvgjsG1546"><path id="SvgjsPath1547" d="M1112.460828009044 393.6004596851068C 1127.179692702412 394.339805662632 1112.207815689922 359.2583039999008 1127.6000061035156 359.2583039999008" stroke-dasharray="3,3" stroke="#323232" stroke-width="2" fill="none"></path></g><g id="SvgjsG1548"><path id="SvgjsPath1549" d="M916.5999816894532 130.34999084472656C 896.7599914550781 130.34999084472656 885.0399963378907 130.34999084472656 861.6000061035156 130.34999084472656" stroke-dasharray="3,3" stroke="#323232" stroke-width="2" fill="none" marker-start="url(#SvgjsMarker1550)"></path></g><g id="SvgjsG1552"><path id="SvgjsPath1553" d="M882.1874717712403 394.339805662632L859.6000061035156 394.339805662632L859.6000061035156 341.44998931884766" stroke-dasharray="3,3" stroke="#323232" stroke-width="2" fill="none" marker-start="url(#SvgjsMarker1554)"></path></g><g id="SvgjsG1556"><path id="SvgjsPath1557" d="M916.5999816894532 192.3976897597313L890.8999938964844 192.3976897597313L890.8999938964844 192.3976897597313L861.6000061035156 192.3976897597313" stroke-dasharray="3,3" stroke="#323232" stroke-width="2" fill="none" marker-start="url(#SvgjsMarker1558)"></path></g><g id="SvgjsG1560"><path id="SvgjsPath1561" d="M1070.1999755859374 123.24999237060547L1088.0999755859375 123.24999237060547L1088.0999755859375 123.24999237060547L1109.5999755859375 123.24999237060547" stroke="#323232" stroke-width="2" fill="none" marker-start="url(#SvgjsMarker1562)"></path></g><g id="SvgjsG1564"><path id="SvgjsPath1565" d="M1108.8977530648049 136.4735352352979L1090.5488643253711 136.4735352352979L1090.5488643253711 136.4735352352979L1069.5999755859375 136.4735352352979" stroke-dasharray="3,3" stroke="#323232" stroke-width="2" fill="none" marker-start="url(#SvgjsMarker1566)"></path></g><g id="SvgjsG1568"><path id="SvgjsPath1569" d="M1082.799046021898 213.22997755494578C 1082.5999755859375 235.33667241755956 1104.5133260565615 248.39158511161804 1127.6000061035156 248.39158511161804" stroke-dasharray="3,3" stroke="#323232" stroke-width="2" fill="none"></path></g><g id="SvgjsG1570"><path id="SvgjsPath1571" d="M118.39996337890625 180.74999084472657C 118.39996337890625 149.34999084472656 118.39996337890625 131.84999084472656 118.39996337890625 97.84999084472656" stroke-dasharray="3,3" stroke="#323232" stroke-width="2" fill="none" marker-start="url(#SvgjsMarker1572)"></path></g><g id="SvgjsG1574"><path id="SvgjsPath1575" d="M128.69999313354492 101.95459148883819L128.69999313354492 141.60229116678238L128.69999313354492 141.60229116678238L128.69999313354492 183.84999084472656" stroke-dasharray="3,3" stroke="#323232" stroke-width="2" fill="none" marker-start="url(#SvgjsMarker1576)"></path></g></svg>