<svg id="SvgjsSvg1898" width="1112" height="948" xmlns="http://www.w3.org/2000/svg" version="1.1" xmlns:xlink="http://www.w3.org/1999/xlink" xmlns:svgjs="http://svgjs.com/svgjs"><defs id="SvgjsDefs1899"><marker id="SvgjsMarker1902" markerWidth="14" markerHeight="10" refX="10" refY="5" viewBox="0 0 14 10" orient="auto" markerUnits="userSpaceOnUse" stroke-dasharray="0,0"><path id="SvgjsPath1903" d="M0,0 L14,5 L0,10 L0,0" fill="#323232" stroke="#323232" stroke-width="1"></path></marker><marker id="SvgjsMarker2010" markerWidth="14" markerHeight="10" refX="10" refY="5" viewBox="0 0 14 10" orient="auto" markerUnits="userSpaceOnUse" stroke-dasharray="0,0"><path id="SvgjsPath2011" d="M0,0 L14,5 L0,10 L0,0" fill="#323232" stroke="#323232" stroke-width="1"></path></marker><marker id="SvgjsMarker2014" markerWidth="14" markerHeight="10" refX="10" refY="5" viewBox="0 0 14 10" orient="auto" markerUnits="userSpaceOnUse" stroke-dasharray="0,0"><path id="SvgjsPath2015" d="M0,0 L14,5 L0,10 L0,0" fill="#323232" stroke="#323232" stroke-width="1"></path></marker><marker id="SvgjsMarker2018" markerWidth="14" markerHeight="10" refX="10" refY="5" viewBox="0 0 14 10" orient="auto" markerUnits="userSpaceOnUse" stroke-dasharray="0,0"><path id="SvgjsPath2019" d="M0,0 L14,5 L0,10 L0,0" fill="#323232" stroke="#323232" stroke-width="1"></path></marker><marker id="SvgjsMarker2022" markerWidth="14" markerHeight="10" refX="10" refY="5" viewBox="0 0 14 10" orient="auto" markerUnits="userSpaceOnUse" stroke-dasharray="0,0"><path id="SvgjsPath2023" d="M0,0 L14,5 L0,10 L0,0" fill="#323232" stroke="#323232" stroke-width="1"></path></marker><marker id="SvgjsMarker2026" markerWidth="14" markerHeight="10" refX="10" refY="5" viewBox="0 0 14 10" orient="auto" markerUnits="userSpaceOnUse" stroke-dasharray="0,0"><path id="SvgjsPath2027" d="M0,0 L14,5 L0,10 L0,0" fill="#323232" stroke="#323232" stroke-width="1"></path></marker><marker id="SvgjsMarker2030" markerWidth="14" markerHeight="10" refX="10" refY="5" viewBox="0 0 14 10" orient="auto" markerUnits="userSpaceOnUse" stroke-dasharray="0,0"><path id="SvgjsPath2031" d="M0,0 L14,5 L0,10 L0,0" fill="#323232" stroke="#323232" stroke-width="1"></path></marker><marker id="SvgjsMarker2034" markerWidth="14" markerHeight="10" refX="10" refY="5" viewBox="0 0 14 10" orient="auto" markerUnits="userSpaceOnUse" stroke-dasharray="0,0"><path id="SvgjsPath2035" d="M0,0 L14,5 L0,10 L0,0" fill="#323232" stroke="#323232" stroke-width="1"></path></marker><marker id="SvgjsMarker2038" markerWidth="14" markerHeight="10" refX="10" refY="5" viewBox="0 0 14 10" orient="auto" markerUnits="userSpaceOnUse" stroke-dasharray="0,0"><path id="SvgjsPath2039" d="M0,0 L14,5 L0,10 L0,0" fill="#323232" stroke="#323232" stroke-width="1"></path></marker><marker id="SvgjsMarker2042" markerWidth="14" markerHeight="10" refX="10" refY="5" viewBox="0 0 14 10" orient="auto" markerUnits="userSpaceOnUse" stroke-dasharray="0,0"><path id="SvgjsPath2043" d="M0,0 L14,5 L0,10 L0,0" fill="#323232" stroke="#323232" stroke-width="1"></path></marker><marker id="SvgjsMarker2046" markerWidth="14" markerHeight="10" refX="10" refY="5" viewBox="0 0 14 10" orient="auto" markerUnits="userSpaceOnUse" stroke-dasharray="0,0"><path id="SvgjsPath2047" d="M0,0 L14,5 L0,10 L0,0" fill="#323232" stroke="#323232" stroke-width="1"></path></marker><marker id="SvgjsMarker2050" markerWidth="14" markerHeight="10" refX="10" refY="5" viewBox="0 0 14 10" orient="auto" markerUnits="userSpaceOnUse" stroke-dasharray="0,0"><path id="SvgjsPath2051" d="M0,0 L14,5 L0,10 L0,0" fill="#323232" stroke="#323232" stroke-width="1"></path></marker><marker id="SvgjsMarker2054" markerWidth="14" markerHeight="10" refX="10" refY="5" viewBox="0 0 14 10" orient="auto" markerUnits="userSpaceOnUse" stroke-dasharray="0,0"><path id="SvgjsPath2055" d="M0,0 L14,5 L0,10 L0,0" fill="#323232" stroke="#323232" stroke-width="1"></path></marker></defs><g id="SvgjsG1900"><path id="SvgjsPath1901" d="M683 893.4999694824219L683 922.4999694824219L964.4500122070312 922.4999694824219L964.4500122070312 124.99996948242188L588.6 124.99996948242188" stroke="#323232" stroke-width="2" fill="none" marker-end="url(#SvgjsMarker1902)"></path><rect id="SvgjsRect1904" width="161" height="16" x="883.9500122070312" y="483.04996948242183" fill="#ffffff"></rect><text id="SvgjsText1905" font-family="微软雅黑" text-anchor="middle" font-size="13px" width="161px" fill="#323232" font-weight="400" align="top" lineHeight="16px" anchor="middle" family="微软雅黑" size="13px" weight="400" font-style="" opacity="1" y="480.42496948242183" transform="rotate(0)"><tspan id="SvgjsTspan1906" dy="16" x="964.4500122070312"><tspan id="SvgjsTspan1907" style="text-decoration:;">For subpaths/wavedepths</tspan></tspan></text></g><g id="SvgjsG1908" transform="translate(842,297.83331298828125)"><path id="SvgjsPath1909" d="M 0 4Q 0 0 4 0L 241 0Q 245 0 245 4L 245 165Q 245 169 241 169L 4 169Q 0 169 0 165Z" stroke-dasharray="3,4" stroke="rgba(50,50,50,1)" stroke-width="2" fill-opacity="1" fill="#c8e6c9"></path><g id="SvgjsG1910"><text id="SvgjsText1911" font-family="微软雅黑" text-anchor="middle" font-size="13px" width="235px" fill="#323232" font-weight="400" align="middle" lineHeight="125%" anchor="middle" family="微软雅黑" size="13px" weight="400" font-style="" opacity="1" y="2.446428571428571" transform="rotate(0)"><tspan id="SvgjsTspan1912" dy="16" x="122.5"><tspan id="SvgjsTspan1913" style="text-decoration:;">(Optional)</tspan></tspan></text></g></g><g id="SvgjsG1914" transform="translate(296,24.999969482421875)"><path id="SvgjsPath1915" d="M 0 4Q 0 0 4 0L 332 0Q 336 0 336 4L 336 48Q 336 52 332 52L 4 52Q 0 52 0 48Z" stroke="rgba(50,50,50,1)" stroke-width="2" fill-opacity="1" fill="#ffffff"></path><g id="SvgjsG1916"><text id="SvgjsText1917" font-family="微软雅黑" text-anchor="middle" font-size="13px" width="316px" fill="#323232" font-weight="400" align="middle" lineHeight="125%" anchor="middle" family="微软雅黑" size="13px" weight="400" font-style="" opacity="1" y="7.375" transform="rotate(0)"><tspan id="SvgjsTspan1918" dy="16" x="168"><tspan id="SvgjsTspan1919" style="text-decoration:;">GenerateCameraRays(): </tspan></tspan><tspan id="SvgjsTspan1920" dy="16" x="168"><tspan id="SvgjsTspan1921" style="text-decoration:;">Generate N rays for the tile, write to RayQueue.</tspan></tspan></text></g></g><g id="SvgjsG1922" transform="translate(343,98.99996948242188)"><path id="SvgjsPath1923" d="M 0 4Q 0 0 4 0L 238 0Q 242 0 242 4L 242 48Q 242 52 238 52L 4 52Q 0 52 0 48Z" stroke="rgba(50,50,50,1)" stroke-width="2" fill-opacity="1" fill="#ffffff"></path><g id="SvgjsG1924"><text id="SvgjsText1925" font-family="微软雅黑" text-anchor="middle" font-size="13px" width="222px" fill="#323232" font-weight="400" align="middle" lineHeight="125%" anchor="middle" family="微软雅黑" size="13px" weight="400" font-style="" opacity="1" y="7.375" transform="rotate(0)"><tspan id="SvgjsTspan1926" dy="16" x="121"><tspan id="SvgjsTspan1927" style="text-decoration:;">GenerateRaySamples():</tspan></tspan><tspan id="SvgjsTspan1928" dy="16" x="121"><tspan id="SvgjsTspan1929" style="text-decoration:;">Generate samples for path tracing.</tspan></tspan></text></g></g><g id="SvgjsG1930" transform="translate(336,181.99996948242188)"><path id="SvgjsPath1931" d="M 0 4Q 0 0 4 0L 252 0Q 256 0 256 4L 256 48Q 256 52 252 52L 4 52Q 0 52 0 48Z" stroke="rgba(50,50,50,1)" stroke-width="2" fill-opacity="1" fill="#ffffff"></path><g id="SvgjsG1932"><text id="SvgjsText1933" font-family="微软雅黑" text-anchor="middle" font-size="13px" width="236px" fill="#323232" font-weight="400" align="middle" lineHeight="125%" anchor="middle" family="微软雅黑" size="13px" weight="400" font-style="" opacity="1" y="7.375" transform="rotate(0)"><tspan id="SvgjsTspan1934" dy="16" x="128"><tspan id="SvgjsTspan1935" style="text-decoration:;">IntersectClosest():</tspan></tspan><tspan id="SvgjsTspan1936" dy="16" x="128"><tspan id="SvgjsTspan1937" style="text-decoration:;">Launch OptiX for intersection queries.</tspan></tspan></text></g></g><g id="SvgjsG1938" transform="translate(151.5,281.4999694824219)"><path id="SvgjsPath1939" d="M 0 4Q 0 0 4 0L 215 0Q 219 0 219 4L 219 48Q 219 52 215 52L 4 52Q 0 52 0 48Z" stroke="rgba(50,50,50,1)" stroke-width="2" fill-opacity="1" fill="#ffffff"></path><g id="SvgjsG1940"><text id="SvgjsText1941" font-family="微软雅黑" text-anchor="middle" font-size="13px" width="199px" fill="#323232" font-weight="400" align="middle" lineHeight="125%" anchor="middle" family="微软雅黑" size="13px" weight="400" font-style="" opacity="1" y="7.375" transform="rotate(0)"><tspan id="SvgjsTspan1942" dy="16" x="109.5"><tspan id="SvgjsTspan1943" style="text-decoration:;">Miss:</tspan></tspan><tspan id="SvgjsTspan1944" dy="16" x="109.5"><tspan id="SvgjsTspan1945" style="text-decoration:;">Enqueue EscapedRayQueue.</tspan></tspan></text></g></g><g id="SvgjsG1946" transform="translate(25,474.4999694824219)"><path id="SvgjsPath1947" d="M 0 4Q 0 0 4 0L 468 0Q 472 0 472 4L 472 48Q 472 52 468 52L 4 52Q 0 52 0 48Z" stroke="rgba(50,50,50,1)" stroke-width="2" fill-opacity="1" fill="#ffffff"></path><g id="SvgjsG1948"><text id="SvgjsText1949" font-family="微软雅黑" text-anchor="middle" font-size="13px" width="452px" fill="#323232" font-weight="400" align="middle" lineHeight="125%" anchor="middle" family="微软雅黑" size="13px" weight="400" font-style="" opacity="1" y="7.375" transform="rotate(0)"><tspan id="SvgjsTspan1950" dy="16" x="236"><tspan id="SvgjsTspan1951" style="text-decoration:;">HandleEscapedRays():</tspan></tspan><tspan id="SvgjsTspan1952" dy="16" x="236"><tspan id="SvgjsTspan1953" style="text-decoration:;">InifiniteAreaLight computation &amp; update pixelSampleState[pixelIndex]</tspan></tspan></text></g></g><g id="SvgjsG1954" transform="translate(631.5499877929688,281.4999694824219)"><path id="SvgjsPath1955" d="M 0 4Q 0 0 4 0L 98.9000244140625 0Q 102.9000244140625 0 102.9000244140625 4L 102.9000244140625 48Q 102.9000244140625 52 98.9000244140625 52L 4 52Q 0 52 0 48Z" stroke="rgba(50,50,50,1)" stroke-width="2" fill-opacity="1" fill="#ffffff"></path><g id="SvgjsG1956"><text id="SvgjsText1957" font-family="微软雅黑" text-anchor="middle" font-size="13px" width="83px" fill="#323232" font-weight="400" align="middle" lineHeight="125%" anchor="middle" family="微软雅黑" size="13px" weight="400" font-style="" opacity="1" y="15.375" transform="rotate(0)"><tspan id="SvgjsTspan1958" dy="16" x="51.5"><tspan id="SvgjsTspan1959" style="text-decoration:;">ClosestHit()</tspan></tspan></text></g></g><g id="SvgjsG1960" transform="translate(855,325.4999694824219)"><path id="SvgjsPath1961" d="M 0 4Q 0 0 4 0L 215 0Q 219 0 219 4L 219 48Q 219 52 215 52L 4 52Q 0 52 0 48Z" stroke="rgba(50,50,50,1)" stroke-width="2" fill-opacity="1" fill="#ffffff"></path><g id="SvgjsG1962"><text id="SvgjsText1963" font-family="微软雅黑" text-anchor="middle" font-size="13px" width="199px" fill="#323232" font-weight="400" align="middle" lineHeight="125%" anchor="middle" family="微软雅黑" size="13px" weight="400" font-style="" opacity="1" y="15.375" transform="rotate(0)"><tspan id="SvgjsTspan1964" dy="16" x="109.5"><tspan id="SvgjsTspan1965" style="text-decoration:;">Enqueue HitAreaLightQueue</tspan></tspan></text></g></g><g id="SvgjsG1966" transform="translate(573.5,474.4999694824219)"><path id="SvgjsPath1967" d="M 0 4Q 0 0 4 0L 215 0Q 219 0 219 4L 219 48Q 219 52 215 52L 4 52Q 0 52 0 48Z" stroke="rgba(50,50,50,1)" stroke-width="2" fill-opacity="1" fill="#ffffff"></path><g id="SvgjsG1968"><text id="SvgjsText1969" font-family="微软雅黑" text-anchor="middle" font-size="13px" width="199px" fill="#323232" font-weight="400" align="middle" lineHeight="125%" anchor="middle" family="微软雅黑" size="13px" weight="400" font-style="" opacity="1" y="7.375" transform="rotate(0)"><tspan id="SvgjsTspan1970" dy="16" x="109.5"><tspan id="SvgjsTspan1971" style="text-decoration:;">Enqueue MaterialEvalQueue</tspan></tspan><tspan id="SvgjsTspan1972" dy="16" x="109.5"><tspan id="SvgjsTspan1973" style="text-decoration:;">(BxDF sorting)</tspan></tspan></text></g></g><g id="SvgjsG1974" transform="translate(859,400.4999694824219)"><path id="SvgjsPath1975" d="M 0 4Q 0 0 4 0L 215 0Q 219 0 219 4L 219 48Q 219 52 215 52L 4 52Q 0 52 0 48Z" stroke="rgba(50,50,50,1)" stroke-width="2" fill-opacity="1" fill="#ffffff"></path><g id="SvgjsG1976"><text id="SvgjsText1977" font-family="微软雅黑" text-anchor="middle" font-size="13px" width="199px" fill="#323232" font-weight="400" align="middle" lineHeight="125%" anchor="middle" family="微软雅黑" size="13px" weight="400" font-style="" opacity="1" y="15.375" transform="rotate(0)"><tspan id="SvgjsTspan1978" dy="16" x="109.5"><tspan id="SvgjsTspan1979" style="text-decoration:;">HandleEmissiveIntersection()</tspan></tspan></text></g></g><g id="SvgjsG1980" transform="translate(525.75,575.1145477294922)"><path id="SvgjsPath1981" d="M 0 4Q 0 0 4 0L 310.5 0Q 314.5 0 314.5 4L 314.5 47.145843505859375Q 314.5 51.145843505859375 310.5 51.145843505859375L 4 51.145843505859375Q 0 51.145843505859375 0 47.145843505859375Z" stroke="rgba(50,50,50,1)" stroke-width="2" fill-opacity="1" fill="#ffffff"></path><g id="SvgjsG1982"><text id="SvgjsText1983" font-family="微软雅黑" text-anchor="middle" font-size="13px" width="295px" fill="#323232" font-weight="400" align="middle" lineHeight="125%" anchor="middle" family="微软雅黑" size="13px" weight="400" font-style="" opacity="1" y="6.9479217529296875" transform="rotate(0)"><tspan id="SvgjsTspan1984" dy="16" x="157.5"><tspan id="SvgjsTspan1985" style="text-decoration:;">EvaluateMaterialAndBSDFs&lt;ConcreteBSDF&gt;():</tspan></tspan><tspan id="SvgjsTspan1986" dy="16" x="157.5"><tspan id="SvgjsTspan1987" style="text-decoration:;">Evaluate Light &amp; Sample BSDF.</tspan></tspan></text></g></g><g id="SvgjsG1988" transform="translate(573.5,668.8749694824219)"><path id="SvgjsPath1989" d="M 0 4Q 0 0 4 0L 215 0Q 219 0 219 4L 219 48Q 219 52 215 52L 4 52Q 0 52 0 48Z" stroke="rgba(50,50,50,1)" stroke-width="2" fill-opacity="1" fill="#ffffff"></path><g id="SvgjsG1990"><text id="SvgjsText1991" font-family="微软雅黑" text-anchor="middle" font-size="13px" width="199px" fill="#323232" font-weight="400" align="middle" lineHeight="125%" anchor="middle" family="微软雅黑" size="13px" weight="400" font-style="" opacity="1" y="15.375" transform="rotate(0)"><tspan id="SvgjsTspan1992" dy="16" x="109.5"><tspan id="SvgjsTspan1993" style="text-decoration:;">Enqueue IndirectRayQueue.</tspan></tspan></text></g></g><g id="SvgjsG1994" transform="translate(573.5,750.8749694824219)"><path id="SvgjsPath1995" d="M 0 4Q 0 0 4 0L 215 0Q 219 0 219 4L 219 48Q 219 52 215 52L 4 52Q 0 52 0 48Z" stroke="rgba(50,50,50,1)" stroke-width="2" fill-opacity="1" fill="#ffffff"></path><g id="SvgjsG1996"><text id="SvgjsText1997" font-family="微软雅黑" text-anchor="middle" font-size="13px" width="199px" fill="#323232" font-weight="400" align="middle" lineHeight="125%" anchor="middle" family="微软雅黑" size="13px" weight="400" font-style="" opacity="1" y="15.375" transform="rotate(0)"><tspan id="SvgjsTspan1998" dy="16" x="109.5"><tspan id="SvgjsTspan1999" style="text-decoration:;">Enqueue ShadowRayQueue.</tspan></tspan></text></g></g><g id="SvgjsG2000" transform="translate(544.5499877929688,832.8749694824219)"><path id="SvgjsPath2001" d="M 0 4Q 0 0 4 0L 272.9000244140625 0Q 276.9000244140625 0 276.9000244140625 4L 276.9000244140625 55.625Q 276.9000244140625 59.625 272.9000244140625 59.625L 4 59.625Q 0 59.625 0 55.625Z" stroke="rgba(50,50,50,1)" stroke-width="2" fill-opacity="1" fill="#ffffff"></path><g id="SvgjsG2002"><text id="SvgjsText2003" font-family="微软雅黑" text-anchor="middle" font-size="13px" width="257px" fill="#323232" font-weight="400" align="middle" lineHeight="125%" anchor="middle" family="微软雅黑" size="13px" weight="400" font-style="" opacity="1" y="11.1875" transform="rotate(0)"><tspan id="SvgjsTspan2004" dy="16" x="138.5"><tspan id="SvgjsTspan2005" style="text-decoration:;">TraceShadowRay():</tspan></tspan><tspan id="SvgjsTspan2006" dy="16" x="138.5"><tspan id="SvgjsTspan2007" style="text-decoration:;">Launch OptiX for intersection queries.</tspan></tspan></text></g></g><g id="SvgjsG2008"><path id="SvgjsPath2009" d="M464 77.99996948242188L464 87.99996948242188L464 87.99996948242188L464 95.39996948242185" stroke="#323232" stroke-width="2" fill="none" marker-end="url(#SvgjsMarker2010)"></path></g><g id="SvgjsG2012"><path id="SvgjsPath2013" d="M464 151.99996948242188L464 166.49996948242188L464 166.49996948242188L464 178.39996948242185" stroke="#323232" stroke-width="2" fill="none" marker-end="url(#SvgjsMarker2014)"></path></g><g id="SvgjsG2016"><path id="SvgjsPath2017" d="M464 234.99996948242188L464 257.7499694824219L261 257.7499694824219L261 277.89996948242185" stroke-dasharray="3,3" stroke="#323232" stroke-width="2" fill="none" marker-end="url(#SvgjsMarker2018)"></path></g><g id="SvgjsG2020"><path id="SvgjsPath2021" d="M464 234.99996948242188L464 257.7499694824219L683 257.7499694824219L683 277.89996948242185" stroke-dasharray="3,3" stroke="#323232" stroke-width="2" fill="none" marker-end="url(#SvgjsMarker2022)"></path></g><g id="SvgjsG2024"><path id="SvgjsPath2025" d="M261 334.4999694824219L261 403.9999694824219L261 403.9999694824219L261 470.89996948242197" stroke="#323232" stroke-width="2" fill="none" marker-end="url(#SvgjsMarker2026)"></path></g><g id="SvgjsG2028"><path id="SvgjsPath2029" d="M683 334.4999694824219L683 403.9999694824219L683 403.9999694824219L683 470.89996948242197" stroke="#323232" stroke-width="2" fill="none" marker-end="url(#SvgjsMarker2030)"></path></g><g id="SvgjsG2032"><path id="SvgjsPath2033" d="M735.4411942151155 307.63247694202323C 786.8592162453049 307.4999694824219 789.5907959617264 382.33331298828125 838.4317447708966 381.85628613371637" stroke="#323232" stroke-width="2" fill="none" marker-end="url(#SvgjsMarker2034)"></path></g><g id="SvgjsG2036"><path id="SvgjsPath2037" d="M841.0001464944928 382.35042928242433C 768.4873425110382 382.33331298828125 683 400.98731199346 683.2791734572083 470.91081050282924" stroke="#323232" stroke-width="2" fill="none" marker-end="url(#SvgjsMarker2038)"></path></g><g id="SvgjsG2040"><path id="SvgjsPath2041" d="M683 527.4999694824219C 683 545.94580078125 683 555.6687164306641 683 571.5145477294923" stroke="#323232" stroke-width="2" fill="none" marker-end="url(#SvgjsMarker2042)"></path></g><g id="SvgjsG2044"><path id="SvgjsPath2045" d="M683 627.2603912353516C 683 643.3062225341796 683 651.8291381835938 683 665.274969482422" stroke="#323232" stroke-width="2" fill="none" marker-end="url(#SvgjsMarker2046)"></path></g><g id="SvgjsG2048"><path id="SvgjsPath2049" d="M683 721.8749694824219C 683 732.8749694824219 683 738.8749694824219 683 747.274969482422" stroke="#323232" stroke-width="2" fill="none" marker-end="url(#SvgjsMarker2050)"></path></g><g id="SvgjsG2052"><path id="SvgjsPath2053" d="M683 803.8749694824219C 683 814.8749694824219 683 820.8749694824219 683 829.274969482422" stroke="#323232" stroke-width="2" fill="none" marker-end="url(#SvgjsMarker2054)"></path></g></svg>